{"title":"Batman Begins[2005]BRrip[Ac3-5.1]-=[CaLvIn]=-","uid":7278597,"size":1068769159,"categoryP":"video","categoryS":"movies","magnet":"?xt=urn:btih:f609742fc8dbf4867287ccf61b3e0041dd771eb7&amp;dn=Batman+Begins%5B2005%5DBRrip%5BAc3-5.1%5D-%3D%5BCaLvIn%5D%3D-&amp;tr=udp%3A%2F%2Ftracker.openbittorrent.com%3A80&amp;tr=udp%3A%2F%2Fopen.demonii.com%3A1337&amp;tr=udp%3A%2F%2Ftracker.coppersurfer.tk%3A6969&amp;tr=udp%3A%2F%2Fexodus.desync.com%3A6969","seeders":2,"leechers":0,"uploader":"rhythmtheguru","files":15,"time":1337368136,"description":"General\nComplete name                    : Batman Begins[2005]BRrip[Ac3-5.1]-=[CaLvIn]=-\nImdb Link                        : http://www.imdb.com/title/tt0372784\nFormat                           : AVI\nFormat/Info                      : Audio Video Interleave\nFile size                        : 1 003 MiB\nDuration                         : 2h 20mn\nOverall bit rate                 : 1 001 Kbps\n\n\nVideo\nID                               : 0\nFormat                           : MPEG-4 Visual\nFormat profile                   : Advanced Simple@L5\nFormat settings, BVOP            : 2\nFormat settings, QPel            : No\nFormat settings, GMC             : No warppoints\nFormat settings, Matrix          : Default (H.263)\nCodec ID                         : XVID\nCodec ID/Hint                    : XviD\nDuration                         : 2h 20mn\nBit rate                         : 800 Kbps\nWidth                            : 720 pixels\nHeight                           : 304 pixels\nDisplay aspect ratio             : 16:9\nFrame rate                       : 23.976 fps\nColor space                      : YUV\nChroma subsampling               : 4:2:0\nBit depth                        : 8 bits\nScan type                        : Progressive\nCompression mode                 : Lossy\nBits/(Pixel*Frame)               : 0.152\nStream size                      : 801 MiB (80%)\nWriting library                  : XviD 1.2.1 (UTC 2008-12-04)\n\nAudio\nID                               : 1\nFormat                           : AC-3\nFormat/Info                      : Audio Coding 3\nMode extension                   : CM (complete main)\nCodec ID                         : 2000\nDuration                         : 2h 20mn\nBit rate mode                    : Constant\nBit rate                         : 192 Kbps\nChannel(s)                       : 6 channels\nChannel positions                : Front: L C R, Side: L R, LFE\nSampling rate                    : 48.0 KHz\nBit depth                        : 16 bits\nCompression mode                 : Lossy\nStream size                      : 192 MiB (19%)\nAlignment                        : Split accross interleaves\nInterleave, duration             : 42 ms (1.00 video frame)\nInterleave, preload duration     : 500 ms\n\n\nScreens\n &lt;a href=&quot;\nhttp://img42.imageshack.us/img42/2559/32468497.png&quot; rel=&quot;nofollow&quot; target=&quot;_NEW&quot;&gt;\nhttp://img42.imageshack.us/img42/2559/32468497.png&lt;/a&gt; &lt;a href=&quot;\nhttp://img685.imageshack.us/img685/705/88066544.png&quot; rel=&quot;nofollow&quot; target=&quot;_NEW&quot;&gt;\nhttp://img685.imageshack.us/img685/705/88066544.png&lt;/a&gt; &lt;a href=&quot;\nhttp://img805.imageshack.us/img805/6149/92502122.png&quot; rel=&quot;nofollow&quot; target=&quot;_NEW&quot;&gt;\nhttp://img805.imageshack.us/img805/6149/92502122.png&lt;/a&gt; &lt;a href=&quot;\nhttp://img213.imageshack.us/img213/5293/70751736.png&quot; rel=&quot;nofollow&quot; target=&quot;_NEW&quot;&gt;\nhttp://img213.imageshack.us/img213/5293/70751736.png&lt;/a&gt; &lt;a href=&quot;\nhttp://img687.imageshack.us/img687/6707/85226156.png&quot; rel=&quot;nofollow&quot; target=&quot;_NEW&quot;&gt;\nhttp://img687.imageshack.us/img687/6707/85226156.png&lt;/a&gt; &lt;a href=&quot;\nhttp://img401.imageshack.us/img401/8488/59444847.png&quot; rel=&quot;nofollow&quot; target=&quot;_NEW&quot;&gt;\nhttp://img401.imageshack.us/img401/8488/59444847.png&lt;/a&gt; &lt;a href=&quot;\nhttp://img337.imageshack.us/img337/6/34699268.png&quot; rel=&quot;nofollow&quot; target=&quot;_NEW&quot;&gt;\nhttp://img337.imageshack.us/img337/6/34699268.png&lt;/a&gt; &lt;a href=&quot;\nhttp://img151.imageshack.us/img151/1997/88511361.png&quot; rel=&quot;nofollow&quot; target=&quot;_NEW&quot;&gt;\nhttp://img151.imageshack.us/img151/1997/88511361.png&lt;/a&gt; &lt;a href=&quot;\nhttp://img88.imageshack.us/img88/93/68081171.png&quot; rel=&quot;nofollow&quot; target=&quot;_NEW&quot;&gt;\nhttp://img88.imageshack.us/img88/93/68081171.png&lt;/a&gt; &lt;a href=&quot;\nhttp://img703.imageshack.us/img703/2029/76987174.png&quot; rel=&quot;nofollow&quot; target=&quot;_NEW&quot;&gt;\nhttp://img703.imageshack.us/img703/2029/76987174.png&lt;/a&gt;","torrent":{"xt":"urn:btih:f609742fc8dbf4867287ccf61b3e0041dd771eb7","amp;dn":"Batman+Begins%5B2005%5DBRrip%5BAc3-5.1%5D-%3D%5BCaLvIn%5D%3D-","amp;tr":["udp%3A%2F%2Ftracker.openbittorrent.com%3A80","udp%3A%2F%2Fopen.demonii.com%3A1337","udp%3A%2F%2Ftracker.coppersurfer.tk%3A6969","udp%3A%2F%2Fexodus.desync.com%3A6969"],"infoHash":"f609742fc8dbf4867287ccf61b3e0041dd771eb7","infoHashBuffer":{"type":"Buffer","data":[246,9,116,47,200,219,244,134,114,135,204,246,27,62,0,65,221,119,30,183]},"announce":[],"urlList":[]}}